<?xml version="1.0" standalone="no"?>
<!DOCTYPE svg PUBLIC "-//W3C//DTD SVG 20010904//EN"
 "http://www.w3.org/TR/2001/REC-SVG-20010904/DTD/svg10.dtd">
<svg version="1.0" xmlns="http://www.w3.org/2000/svg"
 width="500.000000pt" height="500.000000pt" viewBox="0 0 500.000000 500.000000"
 preserveAspectRatio="xMidYMid meet">
<metadata>
Created by potrace 1.14, written by Peter Selinger 2001-2017
</metadata>
<g transform="translate(0.000000,500.000000) scale(0.100000,-0.100000)"
fill="#000000" stroke="none">
<path d="M2667 4604 c-3 -3 -23 -8 -44 -11 -63 -8 -68 -9 -78 -15 -6 -3 -32
-9 -60 -12 -69 -8 -105 -15 -125 -26 -10 -5 -20 -7 -23 -3 -4 3 -12 1 -20 -5
-7 -6 -28 -14 -46 -17 -19 -3 -42 -10 -51 -15 -10 -5 -20 -6 -24 -3 -3 3 -6 1
-6 -6 0 -7 -6 -11 -14 -8 -8 3 -20 -1 -26 -8 -7 -8 -15 -14 -18 -13 -4 1 -16
-2 -27 -6 -11 -5 -27 -10 -35 -14 -8 -3 -17 -6 -20 -7 -23 -8 -47 -20 -58 -29
-8 -5 -23 -11 -34 -13 -11 -2 -25 -9 -32 -16 -7 -6 -36 -23 -64 -36 -29 -14
-52 -28 -52 -33 0 -4 -7 -8 -15 -8 -8 0 -15 -5 -15 -11 0 -5 -4 -7 -10 -4 -5
3 -10 1 -10 -4 0 -6 -7 -11 -15 -11 -8 0 -23 -7 -32 -16 -20 -17 -98 -74 -122
-89 -53 -32 -371 -331 -371 -349 0 -3 -8 -14 -17 -24 -30 -31 -55 -63 -112
-142 -30 -41 -61 -81 -70 -87 -8 -7 -11 -13 -7 -13 4 0 -2 -13 -13 -29 -12
-16 -21 -33 -21 -39 0 -5 -7 -15 -15 -22 -7 -6 -25 -33 -38 -58 -13 -26 -43
-82 -66 -126 -22 -43 -41 -85 -41 -92 0 -8 -5 -14 -10 -14 -6 0 -9 -3 -8 -7 1
-7 -10 -35 -46 -118 -8 -16 -19 -48 -26 -70 -7 -22 -18 -53 -24 -70 -6 -16
-11 -32 -11 -35 0 -3 -3 -9 -6 -15 -7 -11 -22 -64 -24 -80 0 -5 -4 -16 -8 -22
-5 -7 -6 -13 -3 -13 3 0 -2 -19 -10 -42 -8 -24 -18 -61 -20 -83 -3 -22 -9 -45
-15 -51 -5 -6 -6 -13 -4 -16 3 -3 1 -17 -4 -32 -6 -14 -7 -26 -2 -26 5 0 2
-18 -5 -40 -8 -22 -16 -64 -19 -92 -3 -29 -7 -66 -10 -83 -6 -31 -6 -44 -3
-70 2 -23 7 -19 25 25 10 22 21 40 25 40 5 0 8 6 8 14 0 21 88 47 91 27 4 -31
3 -71 -2 -71 -3 0 -5 -20 -4 -44 2 -24 -1 -50 -6 -57 -4 -7 -3 -21 2 -31 5
-10 6 -18 2 -18 -5 0 -8 -65 -8 -144 l0 -143 37 -38 c20 -21 44 -55 54 -76 9
-22 20 -39 25 -39 4 0 10 -14 14 -30 4 -17 11 -30 16 -30 5 0 9 -6 9 -12 0 -7
11 -35 25 -63 13 -27 25 -58 25 -67 0 -10 5 -18 12 -18 6 0 9 -3 6 -6 -7 -7
150 -328 163 -332 5 -2 9 -12 9 -22 0 -10 5 -20 11 -22 5 -2 11 -10 12 -18 3
-15 36 -70 48 -80 3 -3 8 -9 10 -15 13 -33 72 -125 81 -125 5 0 6 -4 3 -10 -3
-5 -2 -10 3 -10 5 0 15 -13 22 -30 7 -16 16 -30 19 -30 4 0 17 -18 30 -40 12
-22 26 -40 31 -40 5 0 11 -8 14 -17 3 -10 19 -34 36 -53 16 -19 30 -38 30 -42
0 -4 10 -12 23 -18 18 -9 20 -9 7 2 -8 7 -25 33 -38 58 -12 25 -41 78 -62 119
-46 84 -48 91 -20 66 11 -10 17 -21 15 -25 -3 -5 -2 -10 3 -12 4 -1 23 -25 42
-53 55 -78 129 -168 257 -314 18 -20 33 -31 33 -24 0 6 -7 18 -15 27 -8 8 -15
19 -15 24 0 6 -3 12 -8 14 -11 5 -109 153 -127 191 -18 39 -37 70 -48 78 -5 3
-9 9 -8 12 0 10 -62 141 -69 147 -4 3 -7 30 -7 60 0 31 -5 64 -10 75 -6 11
-11 23 -11 28 -1 28 -16 94 -24 104 -6 7 -7 13 -3 13 4 0 3 6 -3 13 -6 7 -14
32 -18 55 -4 23 -11 45 -15 48 -5 3 -7 10 -4 15 4 5 3 15 -1 21 -5 7 -9 19
-10 28 -2 8 -7 33 -13 55 -11 43 -24 119 -25 148 0 9 -3 17 -7 17 -3 0 -5 13
-3 30 2 16 -1 32 -6 35 -5 3 -7 12 -4 19 3 8 1 31 -5 52 -19 72 -33 485 -17
501 3 3 0 13 -7 21 -6 9 -7 13 -2 10 6 -4 11 21 13 65 1 40 7 74 12 75 6 2 8
8 5 12 -3 5 4 44 15 87 12 43 22 83 23 89 2 7 9 19 16 28 7 9 11 16 8 16 -7 0
14 53 51 130 15 30 27 59 27 63 0 4 7 12 15 17 13 9 13 10 0 10 -10 0 -11 3
-4 8 6 4 30 39 54 77 24 39 51 79 60 90 10 11 23 38 30 59 7 22 26 63 43 90
16 28 29 52 29 53 -3 7 34 63 41 63 5 0 6 4 3 9 -6 9 221 251 235 251 5 0 19
10 32 23 54 49 68 60 202 145 39 24 189 95 202 95 7 0 13 4 13 9 0 4 6 8 13 8
8 0 27 7 43 14 16 8 48 16 72 17 23 2 42 7 42 12 0 5 7 4 15 -3 8 -7 15 -8 15
-4 0 11 113 10 215 0 90 -10 210 -50 257 -87 20 -16 42 -29 49 -29 7 0 10 -3
7 -6 -6 -5 -63 -13 -138 -19 -19 -2 -35 -4 -35 -5 0 -1 -17 -4 -38 -6 -47 -6
-131 -28 -172 -45 -16 -7 -32 -13 -35 -14 -3 0 -15 -6 -27 -13 -13 -7 -23 -10
-23 -6 0 4 -8 1 -17 -7 -10 -8 -36 -23 -58 -34 -22 -11 -42 -22 -45 -25 -13
-14 -60 -40 -60 -33 0 5 -4 3 -8 -3 -4 -6 -25 -24 -47 -40 -67 -48 -225 -193
-225 -207 0 -3 -13 -20 -29 -37 -50 -56 -78 -94 -87 -122 -4 -10 -10 -18 -14
-18 -5 0 -14 -15 -20 -34 -6 -19 -17 -39 -24 -45 -7 -6 -19 -29 -26 -51 -7
-22 -17 -40 -21 -40 -9 0 20 79 36 100 7 8 20 36 30 62 9 26 23 49 31 52 8 3
14 13 14 21 0 9 14 36 30 60 17 24 30 46 30 49 0 3 19 34 43 69 82 122 111
190 84 200 -18 7 -67 -3 -67 -14 0 -5 -6 -9 -13 -9 -18 0 -179 -120 -221 -165
-19 -20 -50 -57 -68 -82 -18 -25 -43 -56 -55 -69 -12 -13 -20 -24 -16 -24 3 0
-6 -15 -21 -34 -14 -19 -26 -39 -26 -44 0 -5 -7 -15 -15 -22 -8 -7 -15 -21
-15 -31 0 -11 -4 -19 -9 -19 -8 0 -41 -68 -47 -97 -5 -25 -29 -73 -36 -73 -5
0 -7 -3 -6 -7 3 -11 -23 -114 -33 -134 -5 -9 -10 -31 -11 -48 -1 -17 -7 -31
-13 -31 -5 0 -3 -5 5 -10 11 -7 11 -10 2 -10 -7 0 -12 -8 -11 -17 1 -10 0 -20
-1 -23 -1 -3 -3 -21 -5 -40 -2 -19 -7 -62 -10 -95 -9 -74 -12 -295 -5 -295 3
0 6 -12 7 -27 2 -87 7 -144 13 -148 4 -3 5 -16 2 -30 -3 -16 0 -25 8 -25 10 0
10 -3 0 -15 -9 -11 -9 -15 -1 -15 7 0 9 -5 6 -10 -4 -6 -1 -18 7 -27 11 -14
11 -15 0 -9 -11 6 -10 2 1 -20 8 -16 18 -45 23 -64 11 -50 11 -50 13 -52 2 -2
4 -13 6 -24 3 -12 9 -34 15 -50 6 -16 10 -29 8 -30 -2 0 2 -7 8 -15 6 -8 17
-31 24 -52 23 -73 154 -311 195 -357 8 -9 15 -20 15 -23 0 -10 119 -164 165
-213 69 -74 139 -144 175 -174 23 -19 50 -43 61 -53 10 -9 24 -17 29 -17 6 0
10 -4 10 -10 0 -5 7 -10 15 -10 8 0 15 -4 15 -10 0 -5 5 -10 10 -10 6 0 28
-11 51 -25 22 -14 44 -23 49 -20 6 4 10 2 10 -2 0 -10 82 -34 89 -27 16 16
-70 126 -212 274 -42 43 -126 152 -156 203 -12 20 -28 37 -33 37 -6 0 -8 3 -5
7 4 3 1 13 -7 22 -40 45 -200 354 -188 365 3 3 0 6 -6 6 -7 0 -12 11 -12 24 0
14 -4 28 -10 31 -5 3 -10 15 -10 25 0 10 -4 20 -9 22 -9 3 -21 43 -23 76 -1 6
-5 12 -9 12 -4 0 -5 10 -1 22 3 13 1 19 -6 15 -6 -4 -9 0 -7 10 1 10 -1 23 -5
28 -5 6 -16 55 -25 110 -24 137 -25 146 -31 260 -4 74 -2 96 6 83 6 -10 9 -30
7 -45 -2 -15 0 -48 5 -73 5 -25 11 -67 14 -95 4 -27 10 -60 15 -72 5 -13 5
-23 1 -23 -4 0 -2 -4 4 -8 6 -4 18 -36 26 -72 9 -36 24 -83 34 -105 10 -22 19
-43 20 -47 1 -5 3 -10 4 -13 1 -3 3 -8 5 -12 4 -17 19 -48 24 -53 3 -3 23 -40
44 -83 21 -42 44 -83 50 -90 7 -7 21 -28 31 -47 10 -19 30 -47 44 -63 14 -15
22 -27 16 -27 -5 0 -2 -6 6 -13 8 -7 28 -30 44 -52 32 -45 38 -51 134 -150 74
-76 159 -151 235 -205 27 -19 60 -45 75 -56 15 -12 37 -24 50 -28 12 -4 22
-12 22 -17 0 -6 4 -8 9 -5 5 3 14 -1 21 -9 7 -8 19 -15 26 -15 8 0 14 -4 14
-10 0 -5 9 -10 20 -10 11 0 20 -3 20 -7 0 -9 49 -33 67 -33 7 0 13 -4 13 -10
0 -5 3 -9 8 -8 4 1 27 -7 52 -18 50 -23 191 -68 203 -66 4 1 7 -2 7 -7 0 -6 9
-8 20 -6 11 2 20 1 20 -3 0 -4 10 -8 23 -8 12 -1 36 -5 52 -8 108 -23 148 -29
210 -31 39 -2 70 -4 70 -5 0 -1 15 -2 33 -3 17 -1 32 2 32 7 0 5 7 3 15 -4 8
-7 15 -8 15 -3 0 5 30 8 68 8 37 -1 74 2 82 6 19 8 106 29 142 34 15 2 36 9
46 14 11 6 22 7 26 4 3 -3 6 -1 6 5 0 6 10 14 22 18 58 18 52 58 -14 101 -24
15 -47 27 -53 28 -5 0 -32 10 -59 23 -26 12 -52 20 -56 17 -5 -3 -11 -1 -14 4
-3 5 -23 12 -43 16 -21 4 -51 13 -68 20 -16 7 -57 23 -90 36 -33 12 -71 30
-85 38 -13 9 -24 14 -25 11 0 -6 -136 64 -187 97 -21 12 -42 23 -48 23 -5 0
-10 3 -10 8 0 4 -17 16 -37 27 -21 11 -52 31 -70 45 -62 48 -78 61 -89 68 -24
15 -139 119 -173 156 -20 22 -51 55 -70 75 -18 19 -45 52 -59 73 -13 21 -27
38 -31 38 -3 0 -15 18 -25 40 -10 22 -26 48 -35 58 -9 10 -17 24 -19 32 -2 8
-9 22 -16 30 -13 16 -38 68 -42 87 -1 6 -13 40 -27 75 -14 35 -28 79 -31 98
-6 40 -14 75 -16 75 -3 0 -8 38 -15 105 l-5 55 16 -30 c9 -16 20 -41 25 -55 6
-18 7 -12 3 20 -10 84 -14 102 -21 113 -4 7 -9 30 -10 52 -5 54 -4 55 2 95 3
19 7 43 8 53 1 9 5 17 10 17 5 0 7 6 4 13 -2 6 2 29 9 50 15 41 14 38 14 69 0
12 3 18 7 14 4 -3 17 20 29 52 24 66 76 149 125 205 31 34 37 37 60 28 16 -6
30 -21 34 -38 8 -27 10 -43 16 -130 1 -23 6 -40 11 -37 4 3 8 12 8 20 0 8 4
14 8 14 4 0 13 15 20 34 7 18 21 41 32 51 11 10 20 24 20 32 0 7 4 13 9 13 5
0 22 12 38 28 33 30 117 75 148 78 102 12 162 -2 201 -48 27 -31 36 -55 40
-103 10 -128 17 -159 43 -189 9 -10 15 -21 15 -25 -2 -8 32 -51 40 -51 4 0 25
-12 47 -26 86 -54 197 -51 311 8 54 28 168 142 198 197 l12 23 26 -31 c31 -37
85 -47 126 -25 14 7 26 11 26 8 0 -2 20 11 44 30 52 39 106 98 106 115 0 7 4
10 9 6 5 -3 17 13 27 35 10 22 22 40 28 40 5 0 7 3 3 6 -3 4 1 20 9 36 22 43
43 115 50 173 4 28 9 54 12 59 11 19 1 214 -15 281 -2 11 -6 29 -8 40 -9 55
-18 91 -28 115 -9 21 -37 103 -40 115 -1 5 -16 38 -34 72 -18 35 -30 63 -28
63 3 0 -3 9 -13 20 -9 12 -16 23 -14 26 1 2 -2 10 -8 17 -6 6 -27 34 -48 62
-62 84 -161 188 -247 262 -67 57 -243 173 -262 173 -7 0 -13 4 -13 10 0 5 -3
9 -7 8 -5 -2 -28 7 -53 18 -87 41 -115 53 -145 60 -16 4 -34 9 -40 13 -12 6
-31 11 -62 14 -13 1 -23 5 -23 9 0 4 -8 6 -17 6 -10 -1 -45 6 -77 15 -33 9
-63 14 -68 11 -4 -3 -16 0 -27 6 -13 7 -22 7 -26 0 -3 -6 -20 3 -38 20 -18 16
-38 30 -44 30 -7 0 -13 5 -13 10 0 6 -6 10 -14 10 -7 0 -24 9 -38 19 -22 18
-41 20 -204 19 -98 0 -187 -5 -198 -10 -13 -7 -16 -7 -12 1 8 12 3 15 -7 5z
m-757 -1794 c0 -5 -4 -10 -10 -10 -5 0 -10 5 -10 10 0 6 5 10 10 10 6 0 10 -4
10 -10z m-55 -150 c3 -5 1 -10 -4 -10 -6 0 -11 5 -11 10 0 6 2 10 4 10 3 0 8
-4 11 -10z m-50 -300 c-1 -11 -4 -22 -7 -25 -4 -5 -4 34 1 43 4 8 7 -1 6 -18z
m-2 -75 c-3 -9 -8 -14 -10 -11 -3 3 -2 9 2 15 9 16 15 13 8 -4z m1 -75 c-1
-40 -14 -52 -14 -13 0 23 6 43 14 43 1 0 1 -14 0 -30z"/>
<path d="M1715 300 c3 -5 8 -10 11 -10 2 0 4 5 4 10 0 6 -5 10 -11 10 -5 0 -7
-4 -4 -10z"/>
</g>
</svg>
